pedal_clip_forces_x_-0.1_y_-0.06.mot
version=1
nRows=251
nColumns=4
inDegrees=yes
endheader
time	PedalClip_calcn_r_Fx	PedalClip_calcn_r_Fy	PedalClip_calcn_r_Fz
0.86199581	-12.5773628793807	26.8385628306451	0
0.86234751	-12.7040172366194	26.9319346325087	0
0.8624884	-12.8310305817638	27.0258927696344	0
0.86274281	-12.9583837587558	27.1204048794997	0
0.86309202	-13.0860827244024	27.2154969341059	0
0.86314314	-13.2141493444195	27.3112253908137	0
0.86327219	-13.3426024937379	27.4076180832239	0
0.86362309	-13.4714169485487	27.5046212241184	0
0.86376139	-13.6005449187169	27.6021616906847	0
0.86401417	-13.7299482669301	27.7001958332595	0
0.8643612	-13.8596196585577	27.798747642076	0
0.86441199	-13.9895707475769	27.8978734971655	0
0.86454049	-14.1198142690525	27.9975985510075	0
0.86488834	-14.2503246850062	28.097869813136	0
0.86502438	-14.381059115419	28.1986187490118	0
0.86527489	-14.5119860415145	28.2998051491743	0
0.86562019	-14.6431063228398	28.4014513800804	0
0.86567042	-14.7744412042058	28.5036126885785	0
0.86579854	-14.9060091691338	28.6063156256343	0
0.8661423	-15.0377820663722	28.7095042298431	0
0.86627631	-15.1697079020665	28.8131037520994	0
0.86652428	-15.3017473261025	28.9170712184318	0
0.86686823	-15.4339003040624	29.0214345067616	0
0.86691768	-15.5661896332689	29.1262554993272	0
0.86704557	-15.6986359664091	29.2315641486321	0
0.867384	-15.8312172796788	29.3373112876884	0
0.86751623	-15.9638915293762	29.4434321456858	0
0.86776127	-16.0966299078103	29.5498920672779	0
0.86810424	-16.2294445136463	29.6567224504385	0
0.86815263	-16.3623701872144	29.7639883144995	0
0.86828047	-16.4954368753451	29.8717253460689	0
0.8686121	-16.6286255428195	29.9798857420298	0
0.86874287	-16.7618901805269	30.0884012597693	0
0.86898451	-16.8951974992564	30.1972346255214	0
0.86932676	-17.0285598995315	30.3064177745697	0
0.86937384	-17.1620133002174	30.4160180717381	0
0.86950179	-17.2955895266969	30.5260737728138	0
0.86982491	-17.4292779696859	30.6365460756215	0
0.86994996	-17.5630443498528	30.747379051886	0
0.87018535	-17.6968654161192	30.8585454137083	0
0.87052905	-17.8307628820561	30.9700820183915	0
0.87057308	-17.9647799570077	31.0820608600337	0
0.87070233	-18.0989549839104	31.1945288720474	0
0.87100655	-18.2332805447988	31.3074516619167	0
0.87111566	-18.367719184966	31.420771418684	0
0.87134168	-18.5022428840019	31.5344593717749	0
0.87169153	-18.63687174659	31.6485539625071	0
0.87172772	-18.7716493312978	31.7631289594454	0
0.87186201	-18.9066155820038	31.878231840982	0
0.87212379	-19.0417696668114	31.9938339169818	0
0.8722061	-19.1770835756692	32.1098860424067	0
0.87243701	-19.3125377354555	32.2263676972452	0
0.87275563	-19.4481596643191	32.3433240178866	0
0.87280936	-19.5839973134707	32.4608359234713	0
0.87292967	-19.7200968859672	32.5789620862522	0
0.87327532	-19.8564670703427	32.6976831672712	0
0.87340273	-19.993087584996	32.8169542972011	0
0.87364634	-20.1299403781196	32.9367516139118	0
0.87399669	-20.2670315271069	33.057081103962	0
0.87403172	-20.4043599577459	33.1779283958747	0
0.87416636	-20.5419182883308	33.299253929189	0
0.87442549	-20.6797173931541	33.4210342061239	0
0.87450992	-20.8177881217575	33.543311512406	0
0.87473171	-20.9561819285501	33.666181364534	0
0.8750482	-21.0949499358026	33.7897362684824	0
0.8751008	-21.2341230142452	33.9140248255921	0
0.87522057	-21.3737106487868	34.0390405718791	0
0.8755591	-21.5137071518922	34.164732507051	0
0.87568376	-21.6541177084059	34.2910970022649	0
0.87592402	-21.7949802252689	34.4182172971383	0
0.87628502	-21.9363652753984	34.5462191950816	0
0.87632112	-22.0783245017146	34.6751852552982	0
0.87645222	-22.2208857186521	34.8051357254381	0
0.87670701	-22.3640565954741	34.9360347484804	0
0.87678678	-22.5078396069633	35.0678674005619	0
0.87700879	-22.6522556696781	35.2006965794483	0
0.87732152	-22.7973640827731	35.3346366392734	0
0.8773734	-22.9432173237678	35.4697640939918	0
0.87749219	-23.0898513703181	35.6060927820775	0
0.87782424	-23.2372772619214	35.7435696079999	0
0.87794661	-23.3854718357493	35.8821205001065	0
0.87818368	-23.534413578928	36.0217149063792	0
0.87856593	-23.6841099279431	36.162379959823	0
0.87860416	-23.8345905880493	36.3041746110336	0
0.87872923	-23.985891706358	36.4471321053865	0
0.87897482	-24.1380320379184	36.5912267266982	0
0.87905642	-24.291011817796	36.7364214745066	0
0.87927261	-24.4448327899114	36.8827085118949	0
0.87957106	-24.5995136760926	37.030106018827	0
0.87962548	-24.7550618078918	37.1786118668909	0
0.87974034	-24.9114581323658	37.3281796904558	0
0.88007755	-25.0686487654606	37.4787144621585	0
0.88020118	-25.2265545087642	37.6301273059388	0
0.88043706	-25.3850981537532	37.782371969352	0
0.88085848	-25.544221527048	37.9354348500914	0
0.88090062	-25.703867544531	38.0892933707951	0
0.88102069	-25.8639724676759	38.2438959982059	0
0.88127493	-26.024465983936	38.3991627742203	0
0.88135393	-26.1853024627465	38.5550632235969	0
0.88156684	-26.3464814470074	38.7116641364507	0
0.88187501	-26.5080532599581	38.8690918828681	0
0.88192397	-26.6700677196678	39.0274469784071	0
0.88204175	-26.8325579560806	39.1867791532605	0
0.88235309	-26.9955304166344	39.3470822126416	0
0.88246958	-27.1589873172096	39.5083521259252	0
0.88269674	-27.3229507118089	39.6706393731101	0
0.88310293	-27.4874764340356	39.8340473297903	0
0.88331486	-27.6526215280872	39.998658026219	0
0.88351691	-27.8184255279558	40.1644967330297	0
0.88382618	-27.9848976181541	40.3315188318343	0
0.88387199	-28.1520303746915	40.4996641306789	0
0.88399056	-28.3198237803735	40.6689096211026	0
0.88428161	-28.4882980996515	40.8392786949348	0
0.88439278	-28.6574411469027	41.0107530290485	0
0.88460979	-28.8271979639836	41.1832417420629	0
0.88499808	-28.9974728666972	41.3565817531026	0
0.8853119	-29.1681573945409	41.5306029533914	0
0.88534969	-29.3391747679728	41.7051959863841	0
0.88547191	-29.5105226206544	41.8803481612224	0
0.88571432	-29.6822052190149	42.0560503842502	0
0.88579058	-29.8542121742371	42.2322446278503	0
0.88599787	-30.0265160809766	42.408824979721	0
0.88630704	-30.1990936091619	42.5857031526223	0
0.88634952	-30.3719467297425	42.7628565357926	0
0.88646872	-30.5451143429317	42.9403244481455	0
0.88673666	-30.7186501523859	43.1181687784628	0
0.88683007	-30.8926147339636	43.2964496313623	0
0.88703552	-31.0670749299694	43.4752188187234	0
0.88740253	-31.2421199869544	43.6545860809402	0
0.8877053	-31.4178617533769	43.8347481570773	0
0.88773558	-31.5944334764116	44.0159468322485	0
0.88784254	-31.7719554463976	44.1983916736456	0
0.888039	-31.9505402812922	44.3822462066209	0
0.88819565	-32.130296531531	44.567629771062	0
0.88827398	-32.3113132065068	44.7546483270467	0
0.88849758	-32.4936576943458	44.9434492519991	0
0.88872167	-32.6774171395975	45.1342286929183	0
0.88893678	-32.862701203933	45.327172180639	0
0.88916341	-33.0496454781747	45.5224357710306	0
0.88937241	-33.2383974030071	45.7201253715599	0
0.88961777	-33.4290784414206	45.9202886572087	0
0.88982027	-33.6217561395493	46.1229558259007	0
0.89018269	-33.8164379909709	46.3281726050338	0
0.89038605	-34.0131302240366	46.5359849644058	0
0.89067025	-34.2118426187015	46.7463828445078	0
0.89086927	-34.412544494029	46.9592488059146	0
0.89117589	-34.6151444193027	47.1743746688712	0
0.89121274	-34.8194930924965	47.3915251934735	0
0.8913327	-35.0254015690986	47.6104786336858	0
0.89156961	-35.2326933095478	47.8310867525228	0
0.89164324	-35.4412733474402	48.0532618123027	0
0.89184304	-35.6510814946779	48.2768850812359	0
0.89220868	-35.862045509003	48.5017983606602	0
0.89224524	-36.0740532102305	48.7278404907101	0
0.89236828	-36.2869425582377	48.9548673453433	0
0.89262174	-36.5005559324948	49.1828131899204	0
0.89272091	-36.7148174814298	49.4116877364453	0
0.89292374	-36.9297055727021	49.6415017206465	0
0.89317601	-37.1452026131154	49.8722338615603	0
0.89337332	-37.3612166330987	50.1037737172193	0
0.89373284	-37.5775255378233	50.3359034470876	0
0.89421325	-37.7938921998465	50.5684558208367	0
0.89430612	-38.0101987751084	50.8013931101063	0
0.89450461	-38.2264299105459	51.0347394452516	0
0.8947512	-38.4425900880012	51.2685042836255	0
0.89494741	-38.6586353832414	51.5026350208177	0
0.89530456	-38.8744250942498	51.7369979320689	0
0.89577754	-39.0897698550303	51.9714394541423	0
0.89598085	-39.3045699292466	52.2058837374155	0
0.89607569	-39.5188244251098	52.4403179458653	0
0.89632973	-39.7325770362196	52.674746098607	0
0.89652956	-39.9458379818062	52.9091244087368	0
0.89675322	-40.1585438481066	53.1433442919498	0
0.89694911	-40.3705747088059	53.3772660528172	0
0.8972096	-40.581861122654	53.6107993917843	0
0.89740281	-40.7923997267517	53.8439009993625	0
0.89771806	-41.0022324534631	54.0765505102611	0
0.89774959	-41.2113833857444	54.3086963001176	0
0.8978686	-41.4198405150211	54.5402548620162	0
0.89807968	-41.627532268228	54.7710929510906	0
0.89815275	-41.8342959970187	55.0009784727635	0
0.89834578	-42.0399028464733	55.2296063902714	0
0.89863359	-42.2440890327228	55.4566499371082	0
0.89867272	-42.4465983735601	55.6818080817054	0
0.8987859	-42.6472243911907	55.9048634889421	0
0.89902169	-42.8458124831129	56.125689220327	0
0.89909653	-43.0422567782718	56.3442207128462	0
0.89928741	-43.2364647967333	56.5604026672071	0
0.89955176	-43.4283679223045	56.774197709383	0
0.89974279	-43.6179520518286	56.9856212653596	0
0.90005265	-43.8053016398882	57.1947916777518	0
0.90008364	-43.990529664309	57.4018517952196	0
0.90020173	-44.1737779185883	57.6069723838502	0
0.90040985	-44.3552119816838	57.8103500287475	0
0.90048196	-44.534995468364	58.0121777055556	0
0.90067273	-44.7132694660522	58.2126168908847	0
0.90096686	-44.8901643334791	58.4118152940672	0
0.90099851	-45.0658323427222	58.6099361855917	0
0.9011161	-45.2404116358564	58.8071284711497	0
0.90132746	-45.4140188843845	59.0035487089515	0
0.90139812	-45.5867562002671	59.1993683780488	0
0.901588	-45.7587085227312	59.3947494364328	0
0.90193608	-45.9299667438043	59.5898531776973	0
0.90197089	-46.1006515672895	59.7848496989034	0
0.90208317	-46.2708916114676	59.9798860917472	0
0.90229274	-46.4407908288853	60.175073172498	0
0.90236555	-46.6104133121834	60.3705032147011	0
0.90255403	-46.7798088040812	60.5662460879311	0
0.90285543	-46.9490287135499	60.7623509365688	0
0.90288557	-47.1181337148472	60.9588491312412	0
0.90300279	-47.2872082481695	61.1557687016776	0
0.90320718	-47.4563659311111	61.3531460701369	0
0.90327817	-47.6257028378269	61.5510372595423	0
0.90346636	-47.7953275070926	61.7495491717275	0
0.90377324	-47.9653392050286	61.9488069831803	0
0.90380393	-48.1357909405361	62.1489045091153	0
0.90391953	-48.3066862643378	62.3498809381177	0
0.90412233	-48.4780193664212	62.551753761386	0
0.9041938	-48.6498165938495	62.7545881276593	0
0.90438104	-48.8221892661579	62.9585386058408	0
0.90467945	-48.9952763627205	63.1637938940854	0
0.90470929	-49.1692131392684	63.3705485688431	0
0.90482556	-49.3441124144794	63.5789760758954	0
0.90502755	-49.5200869213563	63.7892434641881	0
0.90509805	-49.6972670003303	64.0015193764937	0
0.9052846	-49.8758041648432	64.2159687817646	0
0.90562873	-50.0558668867931	64.4327420389466	0
0.90566315	-50.237610569471	64.6519382500148	0
0.90575714	-50.4211234400496	64.8735544169789	0
0.90593838	-50.6064211999802	65.0975416556167	0
0.9060415	-50.7935118099333	65.323867297375	0
0.90621078	-50.9824130433238	65.5525089139912	0
0.90645891	-51.1731695277824	65.7834560723738	0
0.90650232	-51.3658502733527	66.0166974309432	0
0.90660321	-51.5604814043083	66.2521668287128	0
0.906822	-51.757013680812	66.4897725932256	0
0.90689283	-51.955355912584	66.7294454174493	0
0.90707687	-52.1554146088793	66.9711344394807	0
0.90740682	-52.3571119377295	67.2148039340871	0
0.90743982	-52.5603931549453	67.4604299417964	0
0.90748481	-52.7652287573683	67.7079931224983	0
0.90770979	-52.9716047964708	67.9574705022179	0
0.90789432	-53.1794974111793	68.2088570561831	0
0.90818943	-53.3889027805759	68.4621950260123	0
0.90831619	-53.5998457084074	68.7175574295135	0
0.90847353	-53.8123584176042	68.9750116375186	0
0.9086927	-54.026473023789	69.2346019219489	0
0.90877267	-54.2422133679931	69.4963366548611	0
0.90900552	-54.4595859295995	69.7601968992501	0
0.90918923	-54.6785856329424	70.0261815166773	0
0.90938353	-54.8992208705557	70.2943211174991	0
